<svg width="43" height="57" viewBox="0 0 43 57" fill="none" xmlns="http://www.w3.org/2000/svg">
<path opacity="0.5" d="M18.9132 56.886L18.8949 31.1886C9.20773 34.5599 0.0473514 38.3601 9.41537e-05 43.3878C-0.0412559 47.806 13.5484 57.0526 18.9132 56.886Z" fill="url(#paint0_linear_2001_23)"/>
<path opacity="0.8" d="M0.996976 45.4885C1.18063 49.7266 13.656 56.6595 18.9139 56.886L18.9021 40.0455C10.079 41.3716 0.880444 42.802 0.996976 45.4885Z" fill="url(#paint1_linear_2001_23)"/>
<path opacity="0.5" d="M1.18054 19.6946C1.15476 22.3236 9.84472 26.1324 18.8929 27.3281L18.8832 13.715C10.291 13.7309 1.20685 16.9868 1.18054 19.6946Z" fill="url(#paint2_linear_2001_23)"/>
<path opacity="0.8" d="M30.9895 7.66056C31.0195 4.61331 25.5785 0.314326 18.4991 0.497355L18.4593 13.715C26.9968 13.7782 30.9632 10.306 30.9895 7.66056Z" fill="url(#paint3_linear_2001_23)"/>
<path opacity="0.8" d="M36.6507 34.8946C36.6722 32.3274 27.7846 28.6938 18.4803 27.2716L18.4777 40.0933C27.4512 38.744 36.6293 37.4512 36.6507 34.8946Z" fill="url(#paint4_linear_2001_23)"/>
<path opacity="0.5" d="M42.9999 18.5848C43.0503 13.4711 30.1153 8.96979 18.4965 4.47183L18.4777 31.3335C30.0702 27.2982 42.9494 23.6695 42.9999 18.5848Z" fill="url(#paint5_linear_2001_23)"/>
<path opacity="0.5" d="M18.9131 56.886L18.8734 0.47467C18.7482 0.480948 18.6242 0.492062 18.4991 0.497374L18.4593 56.9135C18.6108 56.9039 18.7617 56.8937 18.9131 56.886Z" fill="#75A8F2"/>
<defs>
<linearGradient id="paint0_linear_2001_23" x1="9.45653" y1="501.364" x2="9.45653" y2="-299.348" gradientUnits="userSpaceOnUse">
<stop stop-color="#1E64C9"/>
<stop offset="0.7676" stop-color="#9AA4DA"/>
</linearGradient>
<linearGradient id="paint1_linear_2001_23" x1="9.95483" y1="348.144" x2="9.95483" y2="-176.55" gradientUnits="userSpaceOnUse">
<stop stop-color="#1E64C9"/>
<stop offset="0.7676" stop-color="#9AA4DA"/>
</linearGradient>
<linearGradient id="paint2_linear_2001_23" x1="10.0366" y1="262.769" x2="10.0366" y2="-161.372" gradientUnits="userSpaceOnUse">
<stop stop-color="#1E64C9"/>
<stop offset="0.7676" stop-color="#9AA4DA"/>
</linearGradient>
<linearGradient id="paint3_linear_2001_23" x1="24.7244" y1="242.428" x2="24.7244" y2="-169.592" gradientUnits="userSpaceOnUse">
<stop stop-color="#1E64C9"/>
<stop offset="0.7676" stop-color="#9AA4DA"/>
</linearGradient>
<linearGradient id="paint4_linear_2001_23" x1="27.5642" y1="261.845" x2="27.5642" y2="-137.635" gradientUnits="userSpaceOnUse">
<stop stop-color="#1E64C9"/>
<stop offset="0.7676" stop-color="#9AA4DA"/>
</linearGradient>
<linearGradient id="paint5_linear_2001_23" x1="30.7387" y1="495.909" x2="30.7387" y2="-341.012" gradientUnits="userSpaceOnUse">
<stop stop-color="#1E64C9"/>
<stop offset="0.7676" stop-color="#9AA4DA"/>
</linearGradient>
</defs>
</svg>
